<?xml version="1.0" encoding="utf-8"?>
<!-- Generator: Adobe Illustrator 24.1.1, SVG Export Plug-In . SVG Version: 6.00 Build 0)  -->
<svg version="1.1" id="Outline" xmlns="http://www.w3.org/2000/svg" xmlns:xlink="http://www.w3.org/1999/xlink" x="0px" y="0px"
	 viewBox="0 0 320.7 320.7" style="enable-background:new 0 0 320.7 320.7;" xml:space="preserve">
<style type="text/css">
	.st0{fill:#018D9B;}
</style>
<g>
	<path class="st0" d="M106.3,129.5c-12.4,0-22.6-10.1-22.6-22.6c0-12.4,10.1-22.6,22.6-22.6s22.6,10.1,22.6,22.6
		C128.9,119.3,118.7,129.5,106.3,129.5L106.3,129.5z M106.3,90.1c-9.2,0-16.7,7.5-16.7,16.7c0,9.2,7.5,16.8,16.7,16.8
		s16.7-7.5,16.7-16.7S115.5,90.1,106.3,90.1L106.3,90.1z"/>
	<path class="st0" d="M286.9,305.2c-0.8,0-1.5-0.3-2.1-0.9l-95.7-95.6l-1.4-0.6H66.9c-1.6,0-2.9-1.3-2.9-2.9V67.6
		c0-1.6,1.3-2.9,2.9-2.9h186.8c1.6,0,2.9,1.3,2.9,2.9v137.7c0,1.6-1.3,2.9-2.9,2.9h-24.2l-1.4,3.4l74.8,74.8
		c0.6,0.6,0.9,1.3,0.9,2.1c0,0.8-0.3,1.5-0.9,2.1L289,304.4C288.4,304.9,287.7,305.2,286.9,305.2z M198.6,207v2.8l86.9,86.9h2.8l7-7
		V287l-86.9-86.9h-2.8L198.6,207z M177.8,172.3l-7,7v2.8l20.9,20.9h2.8l7-7v-2.8l-20.9-20.9H177.8z M179.2,163.8
		c0.8,0,1.5,0.3,2.1,0.9l37,37l1.4,0.6h29.1l2-2v-47l-0.7-1.5l-43.9-39.5l-2.8,0.1l-41,45.5c-0.6,0.6-1.3,1-2.2,1
		c-0.7,0-1.3-0.2-1.8-0.6l-21.1-16.9l-2.7,0.1l-57.3,57.3l1.4,3.4H178l1.4-3.4l-16.2-16.2c-0.5-0.6-0.9-1.3-0.9-2.1s0.3-1.5,0.9-2.1
		l13.9-13.9C177.7,164.1,178.4,163.8,179.2,163.8z M69.9,72.5v120.9l3.4,1.4l60.4-60.4c0.6-0.6,1.3-0.9,2.1-0.9
		c0.7,0,1.3,0.2,1.8,0.6l21,16.8l2.7-0.2l41.1-45.7c0.6-0.6,1.3-1,2.2-1c0.7,0,1.4,0.3,2,0.7l41,36.9l3.3-1.5V72.5l-2-2h-177
		L69.9,72.5z"/>
	<path class="st0" d="M283.3,70.5c-1.6,0-2.9-1.3-2.9-2.9c0-9.5-7.9-21.7-16.7-21.7c-1.6,0-2.9-1.3-2.9-2.9c0-1.6,1.3-2.9,2.9-2.9
		c8.9,0,16.7-12.1,16.7-21.7c0-1.6,1.3-2.9,2.9-2.9c1.6,0,2.9,1.3,2.9,2.9c0,9.5,7.9,21.7,16.7,21.7c1.6,0,2.9,1.3,2.9,2.9
		c0,1.6-1.3,2.9-2.9,2.9c-8.9,0-16.7,12.1-16.7,21.7C286.2,69.2,284.9,70.5,283.3,70.5z M281.5,34c-0.5,0.9-1.1,1.7-1.7,2.5
		c-1.3,1.8-2.9,3.5-4.7,4.9v3.1c1.7,1.4,3.3,3.1,4.6,4.9c0.6,0.8,1.2,1.7,1.7,2.6l3.4,0c0.5-0.9,1.1-1.7,1.7-2.5
		c1.3-1.8,2.9-3.5,4.7-4.9v-3.1c-1.7-1.4-3.3-3.1-4.6-4.9c-0.6-0.8-1.2-1.7-1.7-2.6L281.5,34z"/>
	<path class="st0" d="M37.4,257.3c-1.6,0-2.9-1.3-2.9-2.9c0-9.5-7.9-21.7-16.7-21.7c-1.6,0-2.9-1.3-2.9-2.9s1.3-2.9,2.9-2.9
		c8.9,0,16.7-12.1,16.7-21.7c0-1.6,1.3-2.9,2.9-2.9s2.9,1.3,2.9,2.9c0,9.5,7.9,21.7,16.7,21.7c1.6,0,2.9,1.3,2.9,2.9
		s-1.3,2.9-2.9,2.9c-8.9,0-16.7,12.1-16.7,21.7C40.4,256,39.1,257.3,37.4,257.3z M35.7,220.8c-0.5,0.9-1.1,1.7-1.7,2.5
		c-1.3,1.8-2.9,3.5-4.7,4.9l0,3.1c1.7,1.4,3.3,3.1,4.6,4.9c0.6,0.8,1.2,1.7,1.7,2.6l3.4,0c0.5-0.9,1.1-1.7,1.7-2.5
		c1.3-1.8,2.9-3.5,4.7-4.9l0-3.1c-1.7-1.4-3.3-3.1-4.6-4.9c-0.6-0.8-1.2-1.7-1.7-2.6L35.7,220.8z"/>
</g>
</svg>
