<?xml version="1.0" encoding="utf-8"?>
<!-- Generator: Adobe Illustrator 24.1.1, SVG Export Plug-In . SVG Version: 6.00 Build 0)  -->
<svg version="1.1" id="Outline" xmlns="http://www.w3.org/2000/svg" xmlns:xlink="http://www.w3.org/1999/xlink" x="0px" y="0px"
	 viewBox="0 0 320.7 320.7" style="enable-background:new 0 0 320.7 320.7;" xml:space="preserve">
<style type="text/css">
	.st0{fill:#018D9B;}
</style>
<g>
	<g>
		<g>
			<path class="st0" d="M129.9,162c-2.2-2.3-5.9-2.3-8.1,0c-2.3,2.2-2.3,5.9,0,8.1c2.2,2.3,5.9,2.3,8.1,0
				C132.1,167.9,132.1,164.3,129.9,162z"/>
		</g>
	</g>
	<g>
		<g>
			<path class="st0" d="M160.3,171.9c-9.5,0-17.3,7.7-17.3,17.3s7.7,17.3,17.3,17.3s17.3-7.7,17.3-17.3S169.9,171.9,160.3,171.9z
				 M160.3,194.9c-3.2,0-5.8-2.6-5.8-5.8s2.6-5.8,5.8-5.8s5.8,2.6,5.8,5.8S163.5,194.9,160.3,194.9z"/>
		</g>
	</g>
	<g>
		<g>
			<path class="st0" d="M160.3,143.1c-6.4,0-12.7,1.3-18.5,3.9c-2.9,1.3-4.2,4.7-3,7.6c1.3,2.9,4.7,4.2,7.6,3
				c4.4-1.9,9-2.9,13.9-2.9c19,0,34.5,15.5,34.5,34.5s-15.5,34.5-34.5,34.5s-34.5-15.5-34.5-34.5c0-0.2,0-0.4,0-0.6
				c0.1-3.2-2.4-5.8-5.6-5.9c-3.2-0.1-5.8,2.4-5.9,5.6c0,0.3,0,0.6,0,0.9c0,25.4,20.7,46.1,46.1,46.1s46.1-20.7,46.1-46.1
				S185.7,143.1,160.3,143.1z"/>
		</g>
	</g>
	<g>
		<g>
			<path class="st0" d="M160.3,56.7c-3.2,0-5.8,2.6-5.8,5.8V97c0,3.2,2.6,5.8,5.8,5.8c3.2,0,5.8-2.6,5.8-5.8V62.5
				C166.1,59.3,163.5,56.7,160.3,56.7z"/>
		</g>
	</g>
	<g>
		<g>
			<path class="st0" d="M96,99.4L71.6,75c-2.2-2.2-5.9-2.2-8.1,0c-2.2,2.2-2.2,5.9,0,8.1l24.4,24.4c2.2,2.2,5.9,2.2,8.1,0
				C98.3,105.3,98.3,101.7,96,99.4z"/>
		</g>
	</g>
	<g>
		<g>
			<path class="st0" d="M257.2,75c-2.2-2.2-5.9-2.2-8.1,0l-24.4,24.4c-2.2,2.2-2.2,5.9,0,8.1c2.2,2.2,5.9,2.2,8.1,0l24.4-24.4
				C259.5,80.9,259.5,77.2,257.2,75z"/>
		</g>
	</g>
	<g>
		<g>
			<path class="st0" d="M306.3,190.1c-36.6-41.4-90.9-75.8-145.9-75.8c-55.1,0-109.4,34.4-145.9,75.8c-2.1,2.4-1.9,6,0.5,8.1
				c2.4,2.1,6,1.9,8.1-0.5c1.2-1.4,2.5-2.8,3.8-4.1c28.4,43,80,70.4,133.5,70.4s105.1-27.4,133.5-70.4c1.3,1.4,2.5,2.8,3.8,4.1
				c2.1,2.4,5.7,2.6,8.1,0.5C308.2,196.1,308.4,192.5,306.3,190.1z M160.3,252.5c-50.6,0-99.3-26.3-125.3-67.3
				c20.5-20.1,67.9-59.3,125.3-59.3c57.4,0,104.8,39.2,125.3,59.3C259.6,226.2,211,252.5,160.3,252.5z"/>
		</g>
	</g>
</g>
</svg>
