<?xml version="1.0" encoding="utf-8"?>
<!-- Generator: Adobe Illustrator 24.1.1, SVG Export Plug-In . SVG Version: 6.00 Build 0)  -->
<svg version="1.1" id="Outline" xmlns="http://www.w3.org/2000/svg" xmlns:xlink="http://www.w3.org/1999/xlink" x="0px" y="0px"
	 viewBox="0 0 320.7 320.7" style="enable-background:new 0 0 320.7 320.7;" xml:space="preserve">
<style type="text/css">
	.st0{fill:#018D9B;}
</style>
<g>
	<g>
		<g>
			<path class="st0" d="M252.8,80.5c-2.9,0-5.3,2.4-5.3,5.3c0,2.9,2.4,5.3,5.3,5.3c2.9,0,5.3-2.4,5.3-5.3
				C258.1,82.8,255.7,80.5,252.8,80.5z"/>
		</g>
	</g>
	<g>
		<g>
			<path class="st0" d="M67.9,80.5c-2.9,0-5.3,2.4-5.3,5.3c0,2.9,2.4,5.3,5.3,5.3c2.9,0,5.3-2.4,5.3-5.3
				C73.1,82.8,70.8,80.5,67.9,80.5z"/>
		</g>
	</g>
	<g>
		<path class="st0" d="M31.1,170.9c-1.7,0-3.2-1.4-3.2-3.2v-21c0-1.7,1.4-3.2,3.2-3.2h6.3l2.1-1.8c1.9-14.9,6.6-29.1,13.9-42.2
			c0.6-1,1.6-1.6,2.8-1.6c0.5,0,1.1,0.1,1.5,0.4c0.7,0.4,1.3,1.1,1.5,1.9c0.2,0.8,0.1,1.7-0.3,2.4c-6.7,12-11.1,25-13,38.6l2.1,2.4
			h4.1c1.7,0,3.2,1.4,3.2,3.2v21c0,1.7-1.4,3.2-3.2,3.2H31.1z M34.2,151.9v10.5l2.1,2.1h10.5l2.1-2.1v-10.5l-2.1-2.1H36.3
			L34.2,151.9z"/>
		<g>
			<path class="st0" d="M268.6,170.9c-1.7,0-3.2-1.4-3.2-3.2v-21c0-1.7,1.4-3.2,3.2-3.2h4.1l2.1-2.4c-1.9-13.6-6.3-26.5-13-38.6
				c-0.4-0.7-0.5-1.6-0.3-2.4c0.2-0.8,0.8-1.5,1.5-1.9c0.5-0.3,1-0.4,1.5-0.4c1.1,0,2.2,0.6,2.8,1.6c7.3,13.1,12,27.3,13.9,42.2
				l2.1,1.8h6.3c1.7,0,3.2,1.4,3.2,3.2v21c0,1.7-1.4,3.2-3.2,3.2H268.6z M271.8,151.9v10.5l2.1,2.1h10.5l2.1-2.1v-10.5l-2.1-2.1
				h-10.5L271.8,151.9z"/>
			<path class="st0" d="M128.8,292.8c-1.7,0-3.2-1.4-3.2-3.2v-28.8l-1.4-2c-5.4-1.9-9.1-7.1-9.1-12.9c0-3.6,1.4-7.1,4-9.7
				c1.1-1.1,2.3-1.9,3.6-2.6l1-2.6l-18.9-50.2l0-0.1c0-0.1-0.1-0.2-0.1-0.2l0-0.1c0-0.1,0-0.1,0-0.2l0-0.1c0-0.1,0-0.1,0-0.2
				c0-0.1,0-0.2,0-0.2l0-0.1c0-0.1,0-0.1,0-0.1c0-0.1,0-0.1,0-0.2l0-0.1c0-0.1,0-0.2,0.1-0.3l0-0.1c0-0.1,0.1-0.2,0.1-0.3l0-0.1
				c0-0.1,0.1-0.2,0.1-0.3l52.6-96.2c0.6-1,1.6-1.6,2.8-1.6s2.2,0.6,2.8,1.6l52.6,96.2c0,0.1,0.1,0.2,0.1,0.3c0,0,0,0.1,0,0.1
				c0,0.1,0.1,0.2,0.1,0.3l0,0.1c0,0.1,0,0.1,0.1,0.2l0,0.1c0,0.1,0,0.1,0,0.2l0,0.3l0,0.2c0,0.1,0,0.2,0,0.2c0,0,0,0.1,0,0.1
				c0,0.1,0,0.1,0,0.2l0,0.1c0,0.1,0,0.2-0.1,0.2l0,0.1l-18.9,50.2l1,2.6c4.7,2.3,7.6,7,7.6,12.2c0,3.6-1.4,7.1-4,9.7
				c-1.5,1.5-3.2,2.5-5.1,3.2l-1.4,2v28.7c0,1.7-1.4,3.2-3.2,3.2H128.8z M132,261.8v22.6l2.1,2.1h52.6l2.1-2.1v-22.6l-2.1-2.1h-52.6
				L132,261.8z M128.8,238.7c-2,0-3.8,0.8-5.2,2.2c-1.4,1.4-2.2,3.2-2.2,5.2c0,4.1,3.3,7.4,7.4,7.4h63.1c2,0,3.8-0.8,5.2-2.2
				c1.4-1.4,2.2-3.2,2.2-5.2c0-4-3.3-7.3-7.3-7.4C191.9,238.7,128.8,238.7,128.8,238.7z M113.4,185.8l17.1,45.2l2,1.4h55.8l2-1.4
				l17.1-45.2l-2-2.8h-13.4c-1.7,0-3.2-1.4-3.2-3.2c0-1.7,1.4-3.2,3.2-3.2H204l1.8-3.1l-38.4-70.3l-3.9,1v60.7l1.4,2
				c5.4,1.9,9.1,7.1,9.1,12.9c0,7.5-6.1,13.7-13.7,13.7c-7.5,0-13.7-6.1-13.7-13.7c0-5.8,3.7-10.9,9.1-12.9l1.4-2v-60.7l-3.9-1
				l-38.4,70.3l1.8,3.1h12.2c1.7,0,3.2,1.4,3.2,3.2c0,1.7-1.4,3.2-3.2,3.2h-13.4L113.4,185.8z M160.3,172.4c-4.1,0-7.4,3.3-7.4,7.4
				c0,4.1,3.3,7.4,7.4,7.4s7.4-3.3,7.4-7.4C167.7,175.7,164.4,172.4,160.3,172.4z"/>
			<path class="st0" d="M82.7,71.9c-0.9,0-1.8-0.4-2.4-1.1c-0.5-0.6-0.8-1.5-0.7-2.3s0.5-1.6,1.1-2.1c8.1-6.9,18.3-12.9,29.4-17.6
				l-0.8-4H56.4l-2,1.4c-1.9,5.4-7.1,9.1-12.9,9.1c-7.5,0-13.7-6.1-13.7-13.7S34,27.9,41.6,27.9c5.8,0,10.9,3.7,12.9,9.1l2,1.4h88.1
				l2.1-2.1v-5.3c0-1.7,1.4-3.2,3.2-3.2h21c1.7,0,3.2,1.4,3.2,3.2v5.3l2.1,2.1h88.1l2-1.4c1.9-5.4,7.1-9.1,12.9-9.1
				c7.5,0,13.7,6.1,13.7,13.7s-6.1,13.7-13.7,13.7c-5.8,0-10.9-3.7-12.9-9.1l-2-1.4h-52.8l-0.8,4c11.1,4.6,21.3,10.7,29.4,17.6
				c0.6,0.5,1,1.3,1.1,2.1c0.1,0.8-0.2,1.7-0.7,2.3c-0.6,0.7-1.5,1.1-2.4,1.1c-0.8,0-1.5-0.3-2-0.7c-15.4-13-37.1-22.2-59.5-25.3
				l-2.4,2.1v4.1c0,1.7-1.4,3.2-3.2,3.2h-21c-1.7,0-3.2-1.4-3.2-3.2v-4.1l-2.4-2.1c-22.5,3.1-44.2,12.4-59.5,25.3
				C84.2,71.7,83.5,71.9,82.7,71.9z M279.1,34.2c-4.1,0-7.4,3.3-7.4,7.4s3.3,7.4,7.4,7.4s7.4-3.3,7.4-7.4S283.2,34.2,279.1,34.2z
				 M153,36.3v10.5l2.1,2.1h10.5l2.1-2.1V36.3l-2.1-2.1h-10.5L153,36.3z M41.6,34.2c-4.1,0-7.4,3.3-7.4,7.4s3.3,7.4,7.4,7.4
				s7.4-3.3,7.4-7.4S45.6,34.2,41.6,34.2z"/>
		</g>
	</g>
</g>
</svg>
