<?xml version="1.0" encoding="utf-8"?>
<!-- Generator: Adobe Illustrator 24.1.1, SVG Export Plug-In . SVG Version: 6.00 Build 0)  -->
<svg version="1.1" id="Outline" xmlns="http://www.w3.org/2000/svg" xmlns:xlink="http://www.w3.org/1999/xlink" x="0px" y="0px"
	 viewBox="0 0 320.7 320.7" style="enable-background:new 0 0 320.7 320.7;" xml:space="preserve">
<style type="text/css">
	.st0{fill:#018D9B;}
</style>
<g>
	<path class="st0" d="M-774.4-195c13.6,0,24.6-11,24.6-24.6c0-13.6-11-24.6-24.6-24.6c-13.6,0-24.6,11-24.6,24.6
		C-799-206-788-195-774.4-195z M-774.4-234.3c8.1,0,14.7,6.6,14.7,14.7c0,8.1-6.6,14.7-14.7,14.7c-8.1,0-14.7-6.6-14.7-14.7
		C-789.2-227.7-782.6-234.3-774.4-234.3z"/>
	<path class="st0" d="M-651.2-116.3h24.2c2.7,0,4.9-2.2,4.9-4.9v-137.7c0-2.7-2.2-4.9-4.9-4.9h-186.8c-2.7,0-4.9,2.2-4.9,4.9v137.7
		c0,2.7,2.2,4.9,4.9,4.9h120.9l95.6,95.6c1.9,1.9,5,1.9,7,0c0,0,0,0,0,0l13.9-13.9c1.9-1.9,1.9-5,0-7L-651.2-116.3z M-631.9-254
		v67.6l-41-36.9c-2-1.8-5.1-1.7-6.9,0.4c0,0,0,0,0,0l-41.1,45.7l-21-16.8c-2-1.6-4.8-1.4-6.5,0.4l-60.4,60.4V-254H-631.9z
		 M-801.9-126.2l57.3-57.3l21.1,16.9c2,1.6,5,1.4,6.7-0.6l41-45.5l43.9,39.5v47H-661l-37-37c-1.9-1.9-5-1.9-7,0c0,0,0,0,0,0
		l-13.9,13.9c-1.9,1.9-1.9,5,0,7l16.2,16.2H-801.9z M-708.5-145.8l7-7l20.9,20.9l-7,7L-708.5-145.8z M-593.8-31.1l-86.9-86.9l7-7
		l86.9,86.9L-593.8-31.1z"/>
	<path class="st0" d="M-577.8-288.4c-7.6,0-14.7-11.1-14.7-19.7c0-2.7-2.2-4.9-4.9-4.9c-2.7,0-4.9,2.2-4.9,4.9
		c0,8.6-7.2,19.7-14.7,19.7c-2.7,0-4.9,2.2-4.9,4.9s2.2,4.9,4.9,4.9c7.6,0,14.7,11.1,14.7,19.7c0,2.7,2.2,4.9,4.9,4.9
		c2.7,0,4.9-2.2,4.9-4.9c0-8.6,7.2-19.7,14.7-19.7c2.7,0,4.9-2.2,4.9-4.9S-575.1-288.4-577.8-288.4z M-595.6-278.2
		c-0.6,0.9-1.3,1.8-1.8,2.7c-0.6-0.9-1.2-1.8-1.8-2.7c-1.4-2-3.1-3.7-5-5.3c1.9-1.6,3.5-3.3,5-5.3c0.6-0.9,1.3-1.8,1.8-2.7
		c0.6,0.9,1.2,1.8,1.8,2.7c1.4,2,3.1,3.7,5,5.3C-592.5-281.9-594.2-280.2-595.6-278.2z"/>
	<path class="st0" d="M-823.6-101.6c-7.6,0-14.7-11.1-14.7-19.7c0-2.7-2.2-4.9-4.9-4.9c-2.7,0-4.9,2.2-4.9,4.9
		c0,8.6-7.2,19.7-14.7,19.7c-2.7,0-4.9,2.2-4.9,4.9c0,2.7,2.2,4.9,4.9,4.9c7.6,0,14.7,11.1,14.7,19.7c0,2.7,2.2,4.9,4.9,4.9
		c2.7,0,4.9-2.2,4.9-4.9c0-8.6,7.2-19.7,14.7-19.7c2.7,0,4.9-2.2,4.9-4.9C-818.7-99.4-820.9-101.6-823.6-101.6z M-841.4-91.4
		c-0.6,0.9-1.3,1.8-1.8,2.7c-0.6-0.9-1.2-1.8-1.8-2.7c-1.4-2-3.1-3.7-5-5.3c1.9-1.6,3.5-3.3,5-5.3c0.6-0.9,1.3-1.8,1.8-2.7
		c0.6,0.9,1.2,1.8,1.8,2.7c1.4,2,3.1,3.7,5,5.3C-838.3-95.1-840-93.3-841.4-91.4z"/>
</g>
<g>
	<g>
		<g>
			<path class="st0" d="M233.9,36.4h-147c-10.4,0-20.2,3.2-28.5,9.4c-1.6,1.2-2,3.5-0.8,5.1c1.2,1.6,3.5,2,5.1,0.8
				c7-5.2,15.4-8,24.2-8h147c22.4,0,40.7,18.2,40.7,40.7v96.4c0,22.4-18.2,40.7-40.7,40.7h-62.1c-1.5,0-3,0.6-4,1.7l-49.9,53.1
				c-1.1,1.1-2.3,0.8-2.8,0.6c-0.5-0.2-1.6-0.8-1.6-2.4v-47.6c0-3-2.5-5.5-5.5-5.5H86.8c-22.4,0-40.7-18.2-40.7-40.7V84.3
				c0-8.2,2.5-16.2,7.1-23c1.1-1.7,0.7-3.9-0.9-5.1c-1.7-1.1-3.9-0.7-5.1,0.9c-5.5,8-8.4,17.4-8.4,27.1v96.4
				c0,26.4,21.5,47.9,47.9,47.9h19.3v45.7c0,4.1,2.4,7.7,6.2,9.2c1.2,0.5,2.4,0.7,3.7,0.7c2.7,0,5.2-1.1,7.2-3.1l49.4-52.5h61.4
				c26.4,0,47.9-21.5,47.9-47.9V84.3C281.8,57.9,260.3,36.4,233.9,36.4z"/>
		</g>
	</g>
	<g>
		<g>
			<path class="st0" d="M212.7,94.9c-12.7-12.7-33.2-12.7-45.9,0l-6.4,6.4c0,0-0.1,0.1-0.2,0.1c-0.1,0-0.1-0.1-0.2-0.1l-6.3-6.3
				c-12.7-12.7-33.2-12.7-45.9,0c-12.7,12.7-12.7,33.2,0,45.9l47,47c1.4,1.4,3.3,2.2,5.3,2.2s3.9-0.8,5.3-2.2l25.8-25.8
				c1.4-1.4,1.4-3.7,0-5.2c-1.4-1.4-3.7-1.4-5.2,0l-25.8,25.8c0,0-0.1,0.1-0.2,0.1c-0.1,0-0.1-0.1-0.2-0.1l-47-47
				c-9.8-9.8-9.8-25.8,0-35.6s25.8-9.8,35.6,0l6.3,6.3c1.4,1.4,3.3,2.2,5.3,2.2c2,0,3.9-0.8,5.3-2.2l6.4-6.4
				c9.8-9.8,25.8-9.8,35.6,0c9.8,9.8,9.8,25.8,0,35.6l-10.9,10.9c-1.4,1.4-1.4,3.7,0,5.2c1.4,1.4,3.7,1.4,5.2,0l10.9-10.9
				C225.4,128.2,225.4,107.6,212.7,94.9z"/>
		</g>
	</g>
</g>
</svg>
