<?xml version="1.0" encoding="utf-8"?>
<!-- Generator: Adobe Illustrator 24.1.1, SVG Export Plug-In . SVG Version: 6.00 Build 0)  -->
<svg version="1.1" id="Outline" xmlns="http://www.w3.org/2000/svg" xmlns:xlink="http://www.w3.org/1999/xlink" x="0px" y="0px"
	 viewBox="0 0 320.7 320.7" style="enable-background:new 0 0 320.7 320.7;" xml:space="preserve">
<style type="text/css">
	.st0{fill:#018D9B;}
</style>
<g>
	<path class="st0" d="M132.9,212.6c-1,0-2-0.3-2.8-1l-27.8-23.7c-1-0.8-1.5-2-1.5-3.3c0-1.3,0.6-2.5,1.5-3.3l27.8-23.7
		c1.8-1.5,4.5-1.3,6.1,0.5c1.5,1.8,1.3,4.5-0.5,6.1l-24,20.4l24,20.4c1.8,1.5,2,4.3,0.5,6.1C135.3,212.1,134.1,212.6,132.9,212.6z"
		/>
	<path class="st0" d="M187.8,212.6c-1.2,0-2.4-0.5-3.3-1.5c-1.5-1.8-1.3-4.5,0.5-6.1l24-20.4l-24-20.4c-1.8-1.5-2-4.3-0.5-6.1
		c1.5-1.8,4.3-2,6.1-0.5l27.8,23.7c1,0.8,1.5,2,1.5,3.3c0,1.3-0.6,2.5-1.5,3.3l-27.8,23.7C189.8,212.3,188.8,212.6,187.8,212.6z"/>
	<path class="st0" d="M150.5,230.4c-0.3,0-0.6,0-0.9-0.1c-2.3-0.5-3.8-2.8-3.3-5.1l17.3-82.4c0.5-2.3,2.8-3.8,5.1-3.3
		c2.3,0.5,3.8,2.8,3.3,5.1L154.7,227C154.3,229,152.5,230.4,150.5,230.4z"/>
	<path class="st0" d="M261.7,275.3H59c-15.9,0-28.9-13-28.9-28.9V74.3c0-15.9,13-28.9,28.9-28.9h202.8c15.9,0,28.9,13,28.9,28.9
		v172.1C290.6,262.3,277.7,275.3,261.7,275.3z M59,54c-11.2,0-20.3,9.1-20.3,20.3v172.1c0,11.2,9.1,20.3,20.3,20.3h202.8
		c11.2,0,20.3-9.1,20.3-20.3V74.3c0-11.2-9.1-20.3-20.3-20.3H59z"/>
	<path class="st0" d="M286.3,114.3h-252c-2.4,0-4.3-1.9-4.3-4.3c0-2.4,1.9-4.3,4.3-4.3h252c2.4,0,4.3,1.9,4.3,4.3
		C290.6,112.4,288.7,114.3,286.3,114.3z"/>
	<path class="st0" d="M103.6,93.7c-7.5,0-13.6-6.1-13.6-13.6c0-7.5,6.1-13.6,13.6-13.6c7.5,0,13.6,6.1,13.6,13.6
		C117.2,87.6,111.1,93.7,103.6,93.7z M103.6,75.1c-2.8,0-5,2.2-5,5c0,2.8,2.2,5,5,5c2.8,0,5-2.2,5-5
		C108.6,77.3,106.3,75.1,103.6,75.1z"/>
	<path class="st0" d="M61.7,93.6c-7.5,0-13.6-6.1-13.6-13.6c0-7.5,6.1-13.6,13.6-13.6S75.4,72.5,75.4,80
		C75.4,87.5,69.2,93.6,61.7,93.6z M61.7,74.9c-2.8,0-5,2.2-5,5c0,2.8,2.2,5,5,5c2.8,0,5-2.2,5-5C66.8,77.2,64.5,74.9,61.7,74.9z"/>
	<path class="st0" d="M145.4,93.8c-7.5,0-13.6-6.1-13.6-13.6c0-7.5,6.1-13.6,13.6-13.6c7.5,0,13.6,6.1,13.6,13.6
		C159,87.7,152.9,93.8,145.4,93.8z M145.4,75.2c-2.8,0-5,2.2-5,5c0,2.8,2.2,5,5,5c2.8,0,5-2.2,5-5C150.4,77.5,148.2,75.2,145.4,75.2
		z"/>
</g>
</svg>
