<?xml version="1.0" encoding="utf-8"?>
<!-- Generator: Adobe Illustrator 24.1.1, SVG Export Plug-In . SVG Version: 6.00 Build 0)  -->
<svg version="1.1" id="Capa_1" xmlns="http://www.w3.org/2000/svg" xmlns:xlink="http://www.w3.org/1999/xlink" x="0px" y="0px"
	 viewBox="0 0 71.1 70.6" style="enable-background:new 0 0 71.1 70.6;" xml:space="preserve">
<style type="text/css">
	.st0{fill:url(#SVGID_1_);}
	.st1{fill:#FFFFFF;}
</style>
<g>
	<linearGradient id="SVGID_1_" gradientUnits="userSpaceOnUse" x1="11.3822" y1="57.2075" x2="84.1289" y2="-7.7049">
		<stop  offset="0" style="stop-color:#3E406A"/>
		<stop  offset="0.1953" style="stop-color:#39466E"/>
		<stop  offset="0.4482" style="stop-color:#2D5678"/>
		<stop  offset="0.7316" style="stop-color:#187089"/>
		<stop  offset="0.9741" style="stop-color:#018D9B"/>
	</linearGradient>
	<circle class="st0" cx="35.7" cy="35.5" r="34"/>
	<g>
		<path class="st1" d="M46.2,18.6c0-2.3-1.9-4.3-4.3-4.3c-0.1,0-0.4,0-0.5,0c-0.2,0-5.4,0.3-9,3.4c-0.1,0.1-0.2,0-0.2-0.1v-2.8
			c0-0.1-0.1-0.1-0.1-0.1c-0.9,0.2-6,1.1-10.4,2.5c0,0,0,0,0,0c-0.2,0.1-2.4,1.5-2.7,1.7l-0.1,0.1c0,0-0.1,0.1-0.1,0.1v0.4
			c0,0.1,0,0.1,0.1,0.1l0.8,0.1c0.1,0,0.1,0.1,0.1,0.1v24.5c0,0.1,0.1,0.1,0.1,0.1h9.2c0,0,0,0,0.1,0l3.1-2v0l0-19
			c0-0.9,0.3-1.9,0.7-2.7c0,0,0,0,0,0c0,0,0,0,0,0c0.6-0.7,1.3-1.3,1.9-1.9c0.1-0.1,0.2,0,0.2,0.1c-0.2,0.5-0.3,1-0.3,1.6
			c0,2.4,2,4.4,4.4,4.4c0.8,0,1.5-0.2,2.2-0.6l0.1-0.1c0.1,0,0.1-0.1,0.2-0.1c0,0,0,0,0,0l2.7-2.1c0.1-0.1,0.1-0.1,0.2-0.2l0,0l0,0
			C45.6,21.1,46.2,19.9,46.2,18.6z M29,44.2h-8.8c-0.1,0-0.1-0.1-0.1-0.1V19.6c0-0.1,0-0.1-0.1-0.1l-0.9-0.1v-0.1
			c0.3-0.2,0.4-0.2,2.5-1.6c0,0,0.1,0,0.1,0l0.8,0.1c0.1,0,0.1,0.1,0.1,0.1v24.5c0,0.1,0.1,0.1,0.1,0.1h8.5h0.1
			c0.1,0,0.2,0.2,0.1,0.2L29,44.2C29.1,44.2,29.1,44.2,29,44.2z M41.6,23.9C41.6,23.9,41.6,23.9,41.6,23.9c-0.1,0.1-0.2,0.1-0.2,0.1
			l0,0l0,0l0,0c-0.6,0.4-1.3,0.5-2,0.5c-2.3,0-4.1-1.8-4.1-4.1c0-0.9,0.3-1.8,0.9-2.5l0.2-0.2c0,0,0,0,0,0c0,0,0,0,0,0l0.3-0.4
			c0.1-0.1,0-0.3-0.2-0.2c-0.1,0-0.1,0.1-0.2,0.1c0,0,0,0,0,0c-0.2,0.1-0.4,0.3-0.6,0.4h0c-0.1,0.1-0.3-0.1-0.2-0.2
			c1-1,2.2-1.8,3.6-2.4c0.1-0.1,0.2,0.1,0.1,0.2c-0.9,0.8-1.5,1.9-1.5,3.2c0,2.3,1.9,4.3,4.3,4.3c0.2,0,0.4,0,0.6,0
			c0.1,0,0.2,0.1,0.1,0.2L41.6,23.9z"/>
		<path class="st1" d="M61.6,30c0-2.3-1.9-4.3-4.3-4.3c-0.1,0-0.4,0-0.4,0c0,0,0,0,0,0c-0.2,0-5.4,0.3-9,3.4c-0.1,0.1-0.2,0-0.2-0.1
			v-2.8c0-0.1-0.1-0.1-0.1-0.1c-0.9,0.2-6,1.1-10.4,2.5c0,0,0,0,0,0c-0.2,0.1-2.4,1.5-2.7,1.7l-0.1,0.1c0,0-0.1,0.1-0.1,0.1v0.4
			c0,0.1,0,0.1,0.1,0.1l0.8,0.1c0.1,0,0.1,0.1,0.1,0.1v24.5c0,0.1,0.1,0.1,0.1,0.1h9.2c0,0,0,0,0.1,0l3.1-2v0V34.7
			c0-0.9,0.3-1.8,0.7-2.6l0,0c0,0,0,0,0,0c0.6-0.7,1.3-1.3,1.9-1.9c0.1-0.1,0.2,0,0.2,0.1c-0.2,0.5-0.3,1-0.3,1.6
			c0,2.4,2,4.4,4.4,4.4c0.8,0,1.5-0.2,2.2-0.6l0.1-0.1c0.1,0,0.1-0.1,0.2-0.1c0,0,0,0,0,0l2.7-2.1c0.1-0.1,0.1-0.1,0.2-0.2l0,0l0,0
			C61,32.5,61.6,31.3,61.6,30z M44.5,55.5h-8.8c-0.1,0-0.1-0.1-0.1-0.1V31c0-0.1,0-0.1-0.1-0.1l-0.9-0.1v-0.1
			c0.3-0.2,0.4-0.2,2.5-1.6c0,0,0.1,0,0.1,0l0.8,0.1c0.1,0,0.1,0.1,0.1,0.1v24.5c0,0.1,0.1,0.1,0.1,0.1h8.5h0.1
			c0.1,0,0.2,0.2,0.1,0.2L44.5,55.5C44.5,55.5,44.5,55.5,44.5,55.5z M57,35.3C57,35.3,57,35.3,57,35.3c-0.1,0.1-0.2,0.1-0.2,0.1l0,0
			l0,0l0,0c-0.6,0.4-1.3,0.5-2,0.5c-2.3,0-4.1-1.8-4.1-4.1c0-0.9,0.3-1.8,0.9-2.5l0.2-0.2c0,0,0,0,0,0c0,0,0,0,0,0l0.3-0.4
			c0.1-0.1,0-0.3-0.2-0.2c-0.1,0-0.1,0.1-0.2,0.1c0,0,0,0,0,0c-0.2,0.1-0.4,0.3-0.6,0.4l0,0c-0.1,0.1-0.3-0.1-0.2-0.2
			c1-1,2.2-1.8,3.6-2.4c0.1-0.1,0.2,0.1,0.1,0.2c-0.9,0.8-1.5,1.9-1.5,3.2c0,2.3,1.9,4.3,4.3,4.3c0.2,0,0.4,0,0.6,0
			c0.1,0,0.2,0.1,0.1,0.2L57,35.3z"/>
	</g>
</g>
</svg>
